<?xml version="1.0" standalone="no"?>
<!DOCTYPE svg PUBLIC "-//W3C//DTD SVG 20010904//EN"
 "http://www.w3.org/TR/2001/REC-SVG-20010904/DTD/svg10.dtd">
<svg version="1.0" xmlns="http://www.w3.org/2000/svg"
 width="512.000000pt" height="512.000000pt" viewBox="0 0 512.000000 512.000000"
 preserveAspectRatio="xMidYMid meet">
<metadata>
Created by potrace 1.15, written by Peter Selinger 2001-2017
</metadata>
<g transform="translate(0.000000,512.000000) scale(0.100000,-0.100000)"
fill="#000000" stroke="none">
<path d="M2480 2703 l0 -2418 -290 290 -289 289 -32 -29 c-17 -17 -44 -47 -61
-68 l-30 -37 357 -365 358 -365 67 0 67 0 358 365 357 365 -52 60 c-29 33 -56
60 -62 60 -5 0 -139 -126 -296 -280 l-287 -279 -3 2414 -2 2415 -80 0 -80 0 0
-2417z"/>
</g>
</svg>
