<svg xmlns="http://www.w3.org/2000/svg" viewBox="0 0 2246.785 1895.108"><defs><style>.a,.b{fill:none;stroke:#ededed;stroke-width:2px;}.b{stroke-miterlimit:10;}</style></defs><g transform="translate(981.909 -2389.946)"><path class="a" d="M369.725-3457.508a677.35,677.35,0,0,0-134,57c-291.86,164-629.912,453.61-744,765-34.96,95.42-45.116,196.968-25,296,45.568,224.337,127.59,418.521,377,486,161.586,43.715,313.161-7.191,474,7,305.1,26.921,527.4,320.606,854,232,239.479-64.974,389.966-293.392,467-507,77.71-215.5,85.575-457.578,9-673a903.518,903.518,0,0,0-70-151C1367.581-3307.255,804.309-3590.547,369.725-3457.508Z" transform="translate(-437.387 5881.966)"/><path class="a" d="M-113.93-2012.377a518.009,518.009,0,0,0,101,48c244.862,85.361,590.308,135.689,838,47,75.9-27.183,143.06-71.654,194-132,115.383-136.7,194.64-279.569,113-455-52.893-113.648-159.333-175.347-230-274-134.057-187.145-63.332-458.631-279-601-158.139-104.392-372.694-76.547-542-15-170.8,62.083-323.4,177.034-418,327a692.32,692.32,0,0,0-58,114C-513.531-2655.076-410.2-2194.346-113.93-2012.377Z" transform="translate(53.269 6076.835)"/><path class="b" d="M-214.032-2066.9c29.041,23.5,60.658,44.852,95,62,234.078,116.907,574.152,210.462,835,153,79.928-17.608,153.57-53.907,213-108,134.628-122.521,232.835-255.483,175-442-37.472-120.833-135.624-195.953-193-304-108.846-204.964-.071-468.584-197-639-144.4-124.958-363.575-125.2-542-85-180,40.558-349.423,136.508-465,275a720.082,720.082,0,0,0-74,108C-527.106-2762.551-486.435-2287.335-214.032-2066.9Z" transform="translate(-32.63 6057.354)"/></g></svg>